<svg width="120" height="24" viewBox="0 0 120 24" fill="none" xmlns="http://www.w3.org/2000/svg">
<path d="M10.7403 2.86946C11.3313 1.95528 12.6687 1.95528 13.2597 2.86945L15.2658 5.97259C15.6032 6.49438 16.1227 6.87186 16.7232 7.03144L20.2944 7.98048C21.3465 8.26006 21.7597 9.53196 21.0729 10.3765L18.7416 13.2434C18.3496 13.7255 18.1511 14.3363 18.1849 14.9567L18.3859 18.6463C18.4451 19.7333 17.3632 20.5194 16.3477 20.1272L12.9007 18.7959C12.3211 18.572 11.6789 18.572 11.0993 18.7959L7.65231 20.1272C6.63684 20.5194 5.55489 19.7333 5.6141 18.6463L5.81507 14.9567C5.84886 14.3363 5.65041 13.7255 5.2584 13.2434L2.92707 10.3765C2.24027 9.53196 2.65354 8.26006 3.7056 7.98048L7.27679 7.03144C7.87729 6.87186 8.39684 6.49438 8.73417 5.97259L10.7403 2.86946Z" fill="#2C2C2C" stroke="#2C2C2C"/>
<path d="M34.7403 2.86946C35.3313 1.95528 36.6687 1.95528 37.2597 2.86945L39.2658 5.97259C39.6032 6.49438 40.1227 6.87186 40.7232 7.03144L44.2944 7.98048C45.3465 8.26006 45.7597 9.53196 45.0729 10.3765L42.7416 13.2434C42.3496 13.7255 42.1511 14.3363 42.1849 14.9567L42.3859 18.6463C42.4451 19.7333 41.3632 20.5194 40.3477 20.1272L36.9007 18.7959C36.3211 18.572 35.6789 18.572 35.0993 18.7959L31.6523 20.1272C30.6368 20.5194 29.5549 19.7333 29.6141 18.6463L29.8151 14.9567C29.8489 14.3363 29.6504 13.7255 29.2584 13.2434L26.9271 10.3765C26.2403 9.53196 26.6535 8.26006 27.7056 7.98048L31.2768 7.03144C31.8773 6.87186 32.3968 6.49438 32.7342 5.97259L34.7403 2.86946Z" fill="#2C2C2C" stroke="#2C2C2C"/>
<path d="M58.7403 2.86946C59.3313 1.95528 60.6687 1.95528 61.2597 2.86945L63.2658 5.97259C63.6032 6.49438 64.1227 6.87186 64.7232 7.03144L68.2944 7.98048C69.3465 8.26006 69.7597 9.53196 69.0729 10.3765L66.7416 13.2434C66.3496 13.7255 66.1511 14.3363 66.1849 14.9567L66.3859 18.6463C66.4451 19.7333 65.3632 20.5194 64.3477 20.1272L60.9007 18.7959C60.3211 18.572 59.6789 18.572 59.0993 18.7959L55.6523 20.1272C54.6368 20.5194 53.5549 19.7333 53.6141 18.6463L53.8151 14.9567C53.8489 14.3363 53.6504 13.7255 53.2584 13.2434L50.9271 10.3765C50.2403 9.53196 50.6535 8.26006 51.7056 7.98048L55.2768 7.03144C55.8773 6.87186 56.3968 6.49438 56.7342 5.97259L58.7403 2.86946Z" fill="#2C2C2C" stroke="#2C2C2C"/>
<path d="M82.7403 2.86946C83.3313 1.95528 84.6687 1.95528 85.2597 2.86945L87.2658 5.97259C87.6032 6.49438 88.1227 6.87186 88.7232 7.03144L92.2944 7.98048C93.3465 8.26006 93.7597 9.53196 93.0729 10.3765L90.7416 13.2434C90.3496 13.7255 90.1511 14.3363 90.1849 14.9567L90.3859 18.6463C90.4451 19.7333 89.3632 20.5194 88.3477 20.1272L84.9007 18.7959C84.3211 18.572 83.6789 18.572 83.0993 18.7959L79.6523 20.1272C78.6368 20.5194 77.5549 19.7333 77.6141 18.6463L77.8151 14.9567C77.8489 14.3363 77.6504 13.7255 77.2584 13.2434L74.9271 10.3765C74.2403 9.53196 74.6535 8.26006 75.7056 7.98048L79.2768 7.03144C79.8773 6.87186 80.3968 6.49438 80.7342 5.97259L82.7403 2.86946Z" fill="#2C2C2C" stroke="#2C2C2C"/>
<path d="M109.26 2.86945L111.266 5.97259C111.603 6.49438 112.123 6.87186 112.723 7.03144L116.294 7.98048C117.346 8.26006 117.76 9.53196 117.073 10.3765L114.742 13.2434C114.35 13.7255 114.151 14.3363 114.185 14.9567L114.386 18.6463C114.445 19.7333 113.363 20.5194 112.348 20.1272L108.901 18.7959C108.321 18.572 107.679 18.572 107.099 18.7959L103.652 20.1272C102.637 20.5194 101.555 19.7333 101.614 18.6463L101.815 14.9567C101.849 14.3363 101.65 13.7255 101.258 13.2434L98.9271 10.3765C98.2403 9.53196 98.6535 8.26006 99.7056 7.98048L103.277 7.03144C103.877 6.87186 104.397 6.49438 104.734 5.97259L106.74 2.86946C107.331 1.95528 108.669 1.95528 109.26 2.86945Z" fill="#2C2C2C" stroke="#2C2C2C"/>
</svg>
