<svg width="20" height="20" viewBox="0 0 20 20" fill="none" xmlns="http://www.w3.org/2000/svg">
<path fill-rule="evenodd" clip-rule="evenodd" d="M16.5 10C16.5 13.5899 13.5899 16.5 10 16.5C6.41015 16.5 3.5 13.5899 3.5 10C3.5 6.41015 6.41015 3.5 10 3.5C13.5899 3.5 16.5 6.41015 16.5 10ZM9.11701 7.0845L8.30462 7.2687C8.10041 7.315 7.95546 7.4965 7.95546 7.70589C7.95546 7.88627 8.06356 8.04907 8.2298 8.11906L8.25455 8.12948C8.34732 8.16854 8.4499 8.178 8.54825 8.15656L8.65992 8.13223C8.96337 8.06609 9.25031 8.29723 9.25031 8.60782C9.25031 8.68034 9.26652 8.75194 9.29774 8.81739L9.30331 8.82907C9.39358 9.01829 9.58457 9.13879 9.79423 9.13879H10.1991C10.2691 9.13879 10.3389 9.13259 10.4078 9.12026L10.5264 9.09906C11.0911 8.99804 11.6733 9.09096 12.1785 9.36271L12.2877 9.42145C12.4705 9.5198 12.6423 9.6375 12.7999 9.77253L13.1927 10.1089C13.2677 10.1731 13.35 10.2281 13.4379 10.2728C14.0314 10.5742 14.2813 11.2902 14.0044 11.8955L13.981 11.9466C13.9127 12.0959 13.8168 12.2309 13.6982 12.3445L13.3055 12.7206L11.7296 14.1593L10.8721 14.9337C10.8088 14.9909 10.7583 15.0608 10.7239 15.139L10.6032 15.4137C10.5801 15.4661 10.5282 15.5 10.4709 15.5C10.383 15.5 10.3154 15.4221 10.3279 15.335L10.5652 13.6797L10.7502 13.0007C10.8447 12.6539 10.7197 12.2844 10.434 12.0662C10.3482 12.0007 10.2752 11.92 10.2185 11.8281L9.87958 11.2792C9.75118 11.0712 9.69255 10.8277 9.71224 10.5841L9.78246 9.71504C9.7986 9.51531 9.64086 9.34431 9.44047 9.34431C9.32218 9.34431 9.21222 9.28337 9.14953 9.18305L8.99846 8.94135C8.90748 8.79579 8.77491 8.68089 8.61789 8.61152L8.3873 8.50965C8.27463 8.45987 8.15281 8.43416 8.02964 8.43416C7.83198 8.43416 7.64001 8.368 7.48432 8.24621L7.31647 8.11491C7.02351 7.88574 6.8259 7.5561 6.76184 7.18971L6.71079 6.89769C6.6225 6.20081 6.90539 5.53078 7.41987 5.10465C7.90131 4.85038 8.42478 4.66505 8.97716 4.5618C9.12009 4.55985 9.26337 4.57131 9.40511 4.5963L11.4208 4.95164C11.5222 4.96951 11.6125 5.02661 11.6721 5.11056C11.8124 5.30819 11.7413 5.58454 11.523 5.68992L11.0743 5.90653C10.9639 5.95985 10.867 6.03747 10.7908 6.13358L10.6494 6.31198C10.5934 6.38259 10.5306 6.44744 10.4618 6.50558L9.89738 6.98248C9.84542 7.02639 9.82312 7.09613 9.83997 7.16204C9.88408 7.33461 9.67493 7.45738 9.54575 7.33475L9.34944 7.14838C9.28751 7.08958 9.2003 7.06561 9.11701 7.0845Z" fill="#2C2C2C"/>
</svg>
