<svg width="20" height="20" viewBox="0 0 20 20" fill="none" xmlns="http://www.w3.org/2000/svg">
<circle cx="9.97424" cy="8.05432" r="1.2008" fill="#2C2C2C"/>
<path fill-rule="evenodd" clip-rule="evenodd" d="M10 4.08691C13.5812 4.08691 16.486 5.86198 16.5 8.0549H16.4999C16.4877 9.93096 14.3598 11.5011 11.5028 11.9156C11.4545 11.7954 11.4059 11.6753 11.3575 11.5564C11.2892 11.3887 11.2215 11.2235 11.1556 11.0629L11.1552 11.0618L11.1545 11.0602C11.1047 10.9389 11.056 10.82 11.0088 10.7045C12.0425 10.2699 12.7683 9.24786 12.7683 8.05626C12.7683 6.47039 11.4827 5.18478 9.89683 5.18478C8.31095 5.18478 7.02534 6.47039 7.02534 8.05626C7.02534 9.26504 7.77224 10.2994 8.82971 10.7229C8.78457 10.8335 8.73803 10.9469 8.69056 11.0627L8.69053 11.0628L8.6905 11.0629C8.62461 11.2235 8.55691 11.3887 8.48861 11.5564C8.44317 11.668 8.39754 11.7807 8.35219 11.8935C5.56788 11.4476 3.51121 9.89855 3.5 8.05392H3.50009C3.5149 5.86145 6.41934 4.08691 10 4.08691ZM8.61782 14.6077C8.61782 14.4577 8.69956 14.1159 8.87758 13.5986C9.04597 13.1093 9.27259 12.5384 9.50406 11.9698C9.56942 11.8093 9.63537 11.6485 9.70033 11.4901L9.70038 11.4899L9.7004 11.4899L9.70052 11.4896C9.7769 11.3033 9.85192 11.1204 9.92304 10.945C9.99422 11.1205 10.0693 11.3036 10.1457 11.49L10.1458 11.4901L10.1458 11.4902L10.1459 11.4905C10.2108 11.6488 10.2767 11.8094 10.342 11.9698C10.5735 12.5384 10.8001 13.1093 10.9685 13.5986C11.1465 14.1159 11.2283 14.4577 11.2283 14.6077C11.2283 15.329 10.6437 15.9135 9.92304 15.9135C9.20234 15.9135 8.61782 15.329 8.61782 14.6077ZM8.78833 8.05422C8.78833 8.66273 9.28163 9.15603 9.89014 9.15603C10.4987 9.15603 10.9919 8.66273 10.9919 8.05422C10.9919 7.44571 10.4987 6.95241 9.89014 6.95241C9.28163 6.95241 8.78833 7.44571 8.78833 8.05422Z" fill="#2C2C2C"/>
</svg>
