<svg width="20" height="20" viewBox="0 0 20 20" fill="none" xmlns="http://www.w3.org/2000/svg">
<path fill-rule="evenodd" clip-rule="evenodd" d="M15.0289 10.7432C14.9419 10.4538 14.9419 10.1439 15.0289 9.85446C15.16 9.41814 15.2303 8.9573 15.2303 8.48084C15.2303 5.73 12.8888 3.5 10.0004 3.5C7.11201 3.5 4.77051 5.73 4.77051 8.48084C4.77051 8.9573 4.84075 9.41814 4.97192 9.85446C5.05892 10.1439 5.05892 10.4538 4.97192 10.7432C4.84075 11.1796 4.77051 11.6404 4.77051 12.1169C4.77051 13.807 5.65444 14.1724 7.00605 14.2028C7.22802 14.2078 7.41035 14.3853 7.41035 14.6073C7.41035 15.6526 8.25775 16.5 9.30307 16.5H10.6977C11.743 16.5 12.5904 15.6526 12.5904 14.6073C12.5904 14.3853 12.7728 14.2078 12.9947 14.2028C14.3463 14.1724 15.2303 13.807 15.2303 12.1169C15.2303 11.6404 15.16 11.1796 15.0289 10.7432ZM7.68349 12.416C8.49498 12.416 9.15283 11.7582 9.15283 10.9467C9.15283 10.1352 8.49498 9.47734 7.68349 9.47734C6.87199 9.47734 6.21414 10.1352 6.21414 10.9467C6.21414 11.7582 6.87199 12.416 7.68349 12.416ZM10.2244 12.5875C10.1341 12.3986 9.86521 12.3986 9.77495 12.5875L9.13471 13.9275C9.05573 14.0928 9.17623 14.2839 9.35942 14.2839H10.6399C10.8231 14.2839 10.9436 14.0928 10.8646 13.9275L10.2244 12.5875ZM13.7848 10.9467C13.7848 11.7582 13.127 12.416 12.3155 12.416C11.504 12.416 10.8461 11.7582 10.8461 10.9467C10.8461 10.1352 11.504 9.47734 12.3155 9.47734C13.127 9.47734 13.7848 10.1352 13.7848 10.9467Z" fill="#2C2C2C"/>
</svg>
