<svg width="20" height="20" viewBox="0 0 20 20" fill="none" xmlns="http://www.w3.org/2000/svg">
<path fill-rule="evenodd" clip-rule="evenodd" d="M15.4558 6.30645H12.7063C12.3547 5.50438 11.5558 4.94434 10.6265 4.94434H9.4257C8.49644 4.94434 7.69752 5.50438 7.34588 6.30645H4.54418C3.96749 6.30645 3.5 6.77556 3.5 7.35424V14.0077C3.5 14.5863 3.96749 15.0554 4.54418 15.0554H15.4558C16.0325 15.0554 16.5 14.5863 16.5 14.0077V7.35424C16.5 6.77556 16.0325 6.30645 15.4558 6.30645ZM12.8976 10.7071C12.8976 12.2985 11.612 13.5885 10.0261 13.5885C8.44023 13.5885 7.15462 12.2985 7.15462 10.7071C7.15462 9.11579 8.44023 7.82574 10.0261 7.82574C11.612 7.82574 12.8976 9.11579 12.8976 10.7071ZM11.2269 10.7071C11.2269 11.3726 10.6893 11.9121 10.0261 11.9121C9.36292 11.9121 8.8253 11.3726 8.8253 10.7071C8.8253 10.0417 9.36292 9.50219 10.0261 9.50219C10.6893 9.50219 11.2269 10.0417 11.2269 10.7071Z" fill="#2C2C2C"/>
</svg>
