<svg width="20" height="20" viewBox="0 0 20 20" fill="none" xmlns="http://www.w3.org/2000/svg">
<path d="M7.82414 9.51756L4.76594 14.8198C4.33543 15.5663 4.87259 16.5 5.73248 16.5H14.2675C15.1274 16.5 15.6645 15.5663 15.234 14.8198L12.1035 9.39212C12.0052 9.22174 11.9534 9.0284 11.9534 8.83158V4.93062H10.4342V9.72212L12.1402 12.6627C12.5127 12.7566 12.8285 13.0651 13.1151 13.345C13.3909 13.6144 13.6396 13.8573 13.8857 13.8573L14.2801 15.6426L6.81836 15.9402L6.58827 15.0145L6.81836 13.4936L8.0346 12.2703C8.05216 12.2703 8.06959 12.2706 8.08688 12.2712L9.56575 9.72212V4.93062H7.97415V8.95702C7.97415 9.15384 7.92241 9.34718 7.82414 9.51756Z" fill="#2C2C2C"/>
<path d="M11.9534 3.5H7.97415V4.93062H9.56575V4.49522H10.4342V4.93062H11.9534V3.5Z" fill="#2C2C2C"/>
<path d="M12.5743 3.5L11.9534 3.5V4.93062H12.5743C12.9682 4.93062 13.2876 4.61037 13.2876 4.21531C13.2876 3.82026 12.9682 3.5 12.5743 3.5Z" fill="#2C2C2C"/>
<path d="M7.97415 3.5L7.42569 3.5C7.03171 3.5 6.71233 3.82026 6.71233 4.21531C6.71233 4.61037 7.03171 4.93062 7.42569 4.93062H7.97415V3.5Z" fill="#2C2C2C"/>
<path fill-rule="evenodd" clip-rule="evenodd" d="M12.1402 12.6627L13.2744 14.6175C13.3946 14.8249 13.2455 15.0849 13.0063 15.0849H6.99368C6.75447 15.0849 6.6053 14.8249 6.72559 14.6175L8.08688 12.2712C8.06959 12.2706 8.05216 12.2703 8.0346 12.2703L6.81836 13.4936L6.58827 15.0145L6.81836 15.9402L14.2801 15.6426L13.8857 13.8573C13.6396 13.8573 13.3909 13.6144 13.1151 13.345C12.8285 13.0651 12.5127 12.7566 12.1402 12.6627Z" fill="#2C2C2C"/>
<path d="M6.99368 15.0849H13.0063C13.2455 15.0849 13.3946 14.8249 13.2744 14.6175L12.1402 12.6627C12.0669 12.6442 11.9913 12.634 11.9134 12.634C11.5268 12.634 11.2777 12.8156 11.0343 12.993C10.8017 13.1625 10.5743 13.3283 10.237 13.3283C10.007 13.3283 9.77478 13.1449 9.50372 12.9308C9.13436 12.639 8.69291 12.2903 8.08688 12.2712L6.72559 14.6175C6.6053 14.8249 6.75447 15.0849 6.99368 15.0849Z" fill="#2C2C2C"/>
</svg>
