<svg width="16" height="17" viewBox="0 0 16 17" fill="none" xmlns="http://www.w3.org/2000/svg">
<path d="M9.25968 1.86945L10.5816 3.91428C10.919 4.43608 11.4385 4.81356 12.039 4.97314L14.3923 5.59851C15.4443 5.87809 15.8576 7.15 15.1708 7.99457L13.6346 9.88372C13.2426 10.3658 13.0441 10.9766 13.0779 11.597L13.2103 14.0283C13.2695 15.1153 12.1876 15.9014 11.1721 15.5092L8.90072 14.6319C8.3211 14.408 7.6789 14.408 7.09928 14.6319L4.82788 15.5092C3.81241 15.9014 2.73046 15.1153 2.78967 14.0283L2.9221 11.597C2.95589 10.9766 2.75744 10.3658 2.36543 9.88372L0.829186 7.99457C0.142386 7.15 0.555653 5.87809 1.60771 5.59851L3.96097 4.97314C4.56147 4.81356 5.08102 4.43608 5.41836 3.91428L6.74032 1.86946C7.33132 0.955284 8.66868 0.955283 9.25968 1.86945Z" fill="#2C2C2C" stroke="#2C2C2C"/>
</svg>
